<svg aria-hidden="true" style="position: absolute; width: 0; height: 0; overflow: hidden;" version="1.1" xmlns="http://www.w3.org/2000/svg" xmlns:xlink="http://www.w3.org/1999/xlink">
    <defs>
        <!-- icon instagram -->
      <symbol id="icon-dashboard" viewBox="0 0 24 24" fill="none">
        <path d="M17.75 10.5C20.0972 10.5 22 8.59721 22 6.25C22 3.90279 20.0972 2 17.75 2C15.4028 2 13.5 3.90279 13.5 6.25C13.5 8.59721 15.4028 10.5 17.75 10.5Z"  stroke-width="2"/>
        <path d="M6.25 10.5C8.59721 10.5 10.5 8.59721 10.5 6.25C10.5 3.90279 8.59721 2 6.25 2C3.90279 2 2 3.90279 2 6.25C2 8.59721 3.90279 10.5 6.25 10.5Z" stroke-width="2"/>
        <path d="M17.75 22C20.0972 22 22 20.0972 22 17.75C22 15.4028 20.0972 13.5 17.75 13.5C15.4028 13.5 13.5 15.4028 13.5 17.75C13.5 20.0972 15.4028 22 17.75 22Z" stroke-width="2"/>
        <path d="M6.25 22C8.59721 22 10.5 20.0972 10.5 17.75C10.5 15.4028 8.59721 13.5 6.25 13.5C3.90279 13.5 2 15.4028 2 17.75C2 20.0972 3.90279 22 6.25 22Z" stroke-width="2"/>
      </symbol>
      <symbol id="icon-categories" viewBox="0 0 24 24" fill="none">
        <path d="M2 12L11.6422 16.8211C11.7734 16.8867 11.839 16.9195 11.9078 16.9324C11.9687 16.9438 12.0313 16.9438 12.0922 16.9324C12.161 16.9195 12.2266 16.8867 12.3578 16.8211L22 12M2 17L11.6422 21.8211C11.7734 21.8867 11.839 21.9195 11.9078 21.9324C11.9687 21.9438 12.0313 21.9438 12.0922 21.9324C12.161 21.9195 12.2266 21.8867 12.3578 21.8211L22 17M2 7L11.6422 2.17889C11.7734 2.1133 11.839 2.0805 11.9078 2.0676C11.9687 2.05616 12.0313 2.05616 12.0922 2.0676C12.161 2.0805 12.2266 2.1133 12.3578 2.17889L22 7L12.3578 11.8211C12.2266 11.8867 12.161 11.9195 12.0922 11.9324C12.0313 11.9438 11.9687 11.9438 11.9078 11.9324C11.839 11.9195 11.7734 11.8867 11.6422 11.8211L2 7Z" stroke-width="2" stroke-linecap="round" stroke-linejoin="round" />
      </symbol>
      <symbol id="icon-notifications" viewBox="0 0 24 24" fill="none">
        <path d="M2.52992 14.7696C2.31727 16.1636 3.268 17.1312 4.43205 17.6134C8.89481 19.4622 15.1052 19.4622 19.5679 17.6134C20.732 17.1312 21.6827 16.1636 21.4701 14.7696C21.3394 13.9129 20.6932 13.1995 20.2144 12.5029C19.5873 11.5793 19.525 10.5718 19.5249 9.5C19.5249 5.35786 16.1559 2 12 2C7.84413 2 4.47513 5.35786 4.47513 9.5C4.47503 10.5718 4.41272 11.5793 3.78561 12.5029C3.30684 13.1995 2.66061 13.9129 2.52992 14.7696Z" stroke-width="2" stroke-linecap="round" stroke-linejoin="round" />
      </symbol>
      <symbol id="icon-support" viewBox="0 0 24 24" fill="none">
        <path d="M9.13626 9.13628L4.92893 4.92896M4.92893 19.0711L9.16797 14.8321M14.8611 14.8638L19.0684 19.0711M19.0684 4.92896L14.8287 9.16862M22 12C22 17.5228 17.5228 22 12 22C6.47715 22 2 17.5228 2 12C2 6.47715 6.47715 2 12 2C17.5228 2 22 6.47715 22 12ZM16 12C16 14.2091 14.2091 16 12 16C9.79086 16 8 14.2091 8 12C8 9.79086 9.79086 8 12 8C14.2091 8 16 9.79086 16 12Z" stroke-width="2" stroke-linecap="round" stroke-linejoin="round" />
      </symbol>
      <symbol id="icon-language" viewBox="0 0 24 24" fill="none">
        <path d="M12 2C15 4 15.9228 8.29203 16 12C15.9228 15.708 15 20 12 22M12 2C9 4 8.07725 8.29203 8 12C8.07725 15.708 9 20 12 22M12 2C6.47715 2 2 6.47715 2 12M12 2C17.5228 2 22 6.47715 22 12M12 22C17.5229 22 22 17.5228 22 12M12 22C6.47716 22 2 17.5228 2 12M22 12C20 15 15.708 15.9228 12 16C8.29203 15.9228 4 15 2 12M22 12C20 9 15.708 8.07725 12 8C8.29203 8.07725 4 9 2 12" stroke-width="2" stroke-linecap="round" stroke-linejoin="round" />
      </symbol>
      <symbol id="icon-settings" viewBox="0 0 24 24" fill="none">
        <path d="M12 15C13.6569 15 15 13.6569 15 12C15 10.3431 13.6569 9 12 9C10.3431 9 9 10.3431 9 12C9 13.6569 10.3431 15 12 15Z" stroke="#878680" stroke-width="2" stroke-linecap="round" stroke-linejoin="round" />
        <path d="M18.7273 14.7273C18.6063 15.0015 18.5702 15.3056 18.6236 15.6005C18.6771 15.8954 18.8177 16.1676 19.0273 16.3818L19.0818 16.4364C19.2509 16.6052 19.385 16.8057 19.4765 17.0265C19.568 17.2472 19.6151 17.4838 19.6151 17.7227C19.6151 17.9617 19.568 18.1983 19.4765 18.419C19.385 18.6397 19.2509 18.8402 19.0818 19.0091C18.913 19.1781 18.7124 19.3122 18.4917 19.4037C18.271 19.4952 18.0344 19.5423 17.7955 19.5423C17.5565 19.5423 17.3199 19.4952 17.0992 19.4037C16.8785 19.3122 16.678 19.1781 16.5091 19.0091L16.4545 18.9545C16.2403 18.745 15.9682 18.6044 15.6733 18.5509C15.3784 18.4974 15.0742 18.5335 14.8 18.6545C14.5311 18.7698 14.3018 18.9611 14.1403 19.205C13.9788 19.4489 13.8921 19.7347 13.8909 20.0273V20.1818C13.8909 20.664 13.6994 21.1265 13.3584 21.4675C13.0174 21.8084 12.5549 22 12.0727 22C11.5905 22 11.1281 21.8084 10.7871 21.4675C10.4461 21.1265 10.2545 20.664 10.2545 20.1818V20.1C10.2475 19.7991 10.1501 19.5073 9.97501 19.2625C9.79991 19.0176 9.55521 18.8312 9.27273 18.7273C8.99853 18.6063 8.69437 18.5702 8.39947 18.6236C8.10456 18.6771 7.83244 18.8177 7.61818 19.0273L7.56364 19.0818C7.39478 19.2509 7.19425 19.385 6.97353 19.4765C6.7528 19.568 6.51621 19.6151 6.27727 19.6151C6.03834 19.6151 5.80174 19.568 5.58102 19.4765C5.36029 19.385 5.15977 19.2509 4.99091 19.0818C4.82186 18.913 4.68775 18.7124 4.59626 18.4917C4.50476 18.271 4.45766 18.0344 4.45766 17.7955C4.45766 17.5565 4.50476 17.3199 4.59626 17.0992C4.68775 16.8785 4.82186 16.678 4.99091 16.5091L5.04545 16.4545C5.25503 16.2403 5.39562 15.9682 5.4491 15.6733C5.50257 15.3784 5.46647 15.0742 5.34545 14.8C5.23022 14.5311 5.03887 14.3018 4.79497 14.1403C4.55107 13.9788 4.26526 13.8921 3.97273 13.8909H3.81818C3.33597 13.8909 2.87351 13.6994 2.53253 13.3584C2.19156 13.0174 2 12.5549 2 12.0727C2 11.5905 2.19156 11.1281 2.53253 10.7871C2.87351 10.4461 3.33597 10.2545 3.81818 10.2545H3.9C4.2009 10.2475 4.49273 10.1501 4.73754 9.97501C4.98236 9.79991 5.16883 9.55521 5.27273 9.27273C5.39374 8.99853 5.42984 8.69437 5.37637 8.39947C5.3229 8.10456 5.18231 7.83244 4.97273 7.61818L4.91818 7.56364C4.74913 7.39478 4.61503 7.19425 4.52353 6.97353C4.43203 6.7528 4.38493 6.51621 4.38493 6.27727C4.38493 6.03834 4.43203 5.80174 4.52353 5.58102C4.61503 5.36029 4.74913 5.15977 4.91818 4.99091C5.08704 4.82186 5.28757 4.68775 5.50829 4.59626C5.72901 4.50476 5.96561 4.45766 6.20455 4.45766C6.44348 4.45766 6.68008 4.50476 6.9008 4.59626C7.12152 4.68775 7.32205 4.82186 7.49091 4.99091L7.54545 5.04545C7.75971 5.25503 8.03183 5.39562 8.32674 5.4491C8.62164 5.50257 8.9258 5.46647 9.2 5.34545H9.27273C9.54161 5.23022 9.77093 5.03887 9.93245 4.79497C10.094 4.55107 10.1807 4.26526 10.1818 3.97273V3.81818C10.1818 3.33597 10.3734 2.87351 10.7144 2.53253C11.0553 2.19156 11.5178 2 12 2C12.4822 2 12.9447 2.19156 13.2856 2.53253C13.6266 2.87351 13.8182 3.33597 13.8182 3.81818V3.9C13.8193 4.19253 13.906 4.47834 14.0676 4.72224C14.2291 4.96614 14.4584 5.15749 14.7273 5.27273C15.0015 5.39374 15.3056 5.42984 15.6005 5.37637C15.8954 5.3229 16.1676 5.18231 16.3818 4.97273L16.4364 4.91818C16.6052 4.74913 16.8057 4.61503 17.0265 4.52353C17.2472 4.43203 17.4838 4.38493 17.7227 4.38493C17.9617 4.38493 18.1983 4.43203 18.419 4.52353C18.6397 4.61503 18.8402 4.74913 19.0091 4.91818C19.1781 5.08704 19.3122 5.28757 19.4037 5.50829C19.4952 5.72901 19.5423 5.96561 19.5423 6.20455C19.5423 6.44348 19.4952 6.68008 19.4037 6.9008C19.3122 7.12152 19.1781 7.32205 19.0091 7.49091L18.9545 7.54545C18.745 7.75971 18.6044 8.03183 18.5509 8.32674C18.4974 8.62164 18.5335 8.9258 18.6545 9.2V9.27273C18.7698 9.54161 18.9611 9.77093 19.205 9.93245C19.4489 10.094 19.7347 10.1807 20.0273 10.1818H20.1818C20.664 10.1818 21.1265 10.3734 21.4675 10.7144C21.8084 11.0553 22 11.5178 22 12C22 12.4822 21.8084 12.9447 21.4675 13.2856C21.1265 13.6266 20.664 13.8182 20.1818 13.8182H20.1C19.8075 13.8193 19.5217 13.906 19.2778 14.0676C19.0339 14.2291 18.8425 14.4584 18.7273 14.7273Z" stroke-width="2" stroke-linecap="round" stroke-linejoin="round" />
      </symbol>
      <symbol id="icon-changePassword" viewBox="0 0 24 24" fill="none">
        <path d="M17 10V8C17 5.23858 14.7614 3 12 3C9.23858 3 7 5.23858 7 8V10M12 14.5V16.5M8.8 21H15.2C16.8802 21 17.7202 21 18.362 20.673C18.9265 20.3854 19.3854 19.9265 19.673 19.362C20 18.7202 20 17.8802 20 16.2V14.8C20 13.1198 20 12.2798 19.673 11.638C19.3854 11.0735 18.9265 10.6146 18.362 10.327C17.7202 10 16.8802 10 15.2 10H8.8C7.11984 10 6.27976 10 5.63803 10.327C5.07354 10.6146 4.6146 11.0735 4.32698 11.638C4 12.2798 4 13.1198 4 14.8V16.2C4 17.8802 4 18.7202 4.32698 19.362C4.6146 19.9265 5.07354 20.3854 5.63803 20.673C6.27976 21 7.11984 21 8.8 21Z" stroke-width="2" stroke-linecap="round" stroke-linejoin="round" />
      </symbol>
      <symbol id="icon-logOut" viewBox="0 0 20 20" fill="none">
        <path d="M13.3333 14.1666L17.5 9.99997M17.5 9.99997L13.3333 5.8333M17.5 9.99997H7.5M10 14.1666C10 14.413 10 14.5361 9.99084 14.6428C9.89569 15.7516 9.07905 16.664 7.98753 16.881C7.88252 16.9019 7.76001 16.9155 7.51529 16.9427L6.66412 17.0373C5.3854 17.1794 4.74601 17.2504 4.23805 17.0879C3.56078 16.8711 3.00785 16.3762 2.71765 15.727C2.5 15.2401 2.5 14.5968 2.5 13.3102V6.68972C2.5 5.40311 2.5 4.7598 2.71765 4.2729C3.00785 3.6237 3.56078 3.12881 4.23805 2.91208C4.74601 2.74953 5.38538 2.82057 6.66412 2.96265L7.51529 3.05723C7.7601 3.08443 7.8825 3.09803 7.98753 3.11891C9.07905 3.33593 9.89569 4.24834 9.99084 5.35714C10 5.46383 10 5.58699 10 5.8333" stroke="#DE3F0D" stroke-width="1.66667" stroke-linecap="round" stroke-linejoin="round" />
      </symbol>
      <symbol id="icon-arrow" viewBox="0 0 24 24" fill="none">
        <path d="M9 18L15 12L9 6" stroke="#282003" stroke-width="2" stroke-linecap="round" stroke-linejoin="round" />
      </symbol>
      <symbol id="icon-search" viewBox="0 0 24 24" fill="none">
        <path d="M21 21L17.5001 17.5M20 11.5C20 16.1944 16.1944 20 11.5 20C6.80558 20 3 16.1944 3 11.5C3 6.80558 6.80558 3 11.5 3C16.1944 3 20 6.80558 20 11.5Z" stroke="#3D3B36" stroke-width="2" stroke-linecap="round" stroke-linejoin="round" />
      </symbol>
      <symbol id="icon-completed" viewBox="0 0 32 32" fill="none">
        <path opacity="0.99" d="M13.7507 21.4587C13.5754 21.459 13.4017 21.4247 13.2397 21.3576C13.0777 21.2906 12.9305 21.1922 12.8067 21.068L9.05739 17.3173C8.81451 17.0659 8.68012 16.7291 8.68316 16.3795C8.68619 16.0299 8.82642 15.6955 9.07363 15.4482C9.32084 15.201 9.65526 15.0608 10.0049 15.0578C10.3544 15.0547 10.6913 15.1891 10.9427 15.432L13.7494 18.24L21.0574 10.9333C21.3098 10.6963 21.6446 10.5667 21.9908 10.5721C22.3371 10.5775 22.6676 10.7174 22.9126 10.9621C23.1575 11.2069 23.2977 11.5374 23.3033 11.8836C23.3089 12.2299 23.1796 12.5647 22.9427 12.8173L14.6921 21.068C14.5684 21.192 14.4215 21.2903 14.2597 21.3574C14.0979 21.4244 13.9258 21.4588 13.7507 21.4587Z" fill="white" />
        <path d="M16.0001 2.66667C13.363 2.66667 10.7851 3.44865 8.59248 4.91374C6.39983 6.37883 4.69086 8.46121 3.68169 10.8976C2.67253 13.3339 2.40848 16.0148 2.92295 18.6012C3.43742 21.1876 4.7073 23.5634 6.572 25.4281C8.4367 27.2928 10.8125 28.5627 13.3989 29.0771C15.9853 29.5916 18.6662 29.3276 21.1025 28.3184C23.5389 27.3092 25.6213 25.6003 27.0863 23.4076C28.5514 21.2149 29.3334 18.6371 29.3334 16C29.3295 12.465 27.9235 9.07584 25.4239 6.5762C22.9242 4.07655 19.5351 2.67055 16.0001 2.66667ZM22.9428 12.8173L14.6921 21.068C14.4421 21.318 14.103 21.4584 13.7494 21.4584C13.3959 21.4584 13.0568 21.318 12.8068 21.068L9.05742 17.3173C8.81454 17.0659 8.68015 16.7291 8.68319 16.3795C8.68623 16.0299 8.82645 15.6955 9.07366 15.4482C9.32087 15.201 9.65529 15.0608 10.0049 15.0578C10.3545 15.0547 10.6913 15.1891 10.9428 15.432L13.7494 18.24L21.0574 10.9333C21.3099 10.6963 21.6446 10.5667 21.9909 10.5721C22.3371 10.5775 22.6677 10.7174 22.9126 10.9621C23.1576 11.2069 23.2977 11.5374 23.3033 11.8836C23.3089 12.2299 23.1796 12.5647 22.9428 12.8173Z" fill="#13C846" />
      </symbol>
      <symbol id="icon-ongoing" viewBox="0 0 32 32" fill="none">
        <g clip-path="url(#clip0_11_932)">
          <path d="M16 32.0001C24.8366 32.0001 32 24.8366 32 16.0001C32 7.1635 24.8366 0 16 0C7.16344 0 0 7.1635 0 16.0001C0 24.8366 7.16344 32.0001 16 32.0001Z" fill="#FBD44B" />
          <path d="M22.2749 30.697C22.6074 30.5624 22.9352 30.4166 23.2579 30.26C23.7332 30.0176 24.1961 29.7516 24.6449 29.463C25.0935 29.1748 25.5273 28.8644 25.9449 28.533C26.3625 28.2019 26.7634 27.8501 27.1459 27.479C27.5292 27.1068 27.8937 26.7156 28.2379 26.307C28.5812 25.8993 28.9039 25.4748 29.2049 25.035C29.5062 24.5942 29.7852 24.1386 30.0409 23.67C30.284 23.2225 30.5056 22.7636 30.7049 22.295L19.8159 11.406L19.7829 11.373C19.6929 11.283 19.5859 11.207 19.4879 11.123C19.3659 11.017 19.2509 10.903 19.1189 10.809C19.0379 10.749 18.9459 10.707 18.8609 10.652C18.6959 10.546 18.5349 10.436 18.3569 10.348L18.3519 10.344C18.0846 10.2116 17.8071 10.1013 17.5219 10.014H17.5179C16.895 9.8215 16.243 9.74059 15.5919 9.77498C13.2609 9.89798 11.2039 11.475 10.5779 13.764C10.5556 13.8485 10.5558 13.9374 10.5786 14.0219C10.6014 14.1063 10.646 14.1832 10.7078 14.2451C10.7696 14.3069 10.8466 14.3514 10.931 14.3742C11.0154 14.397 11.1043 14.3973 11.1889 14.375L17.7359 20.922C17.4149 21.045 17.0769 21.124 16.7289 21.172L12.6789 17.123C12.674 17.1175 12.669 17.1122 12.6639 17.107L11.4539 15.912C11.4061 15.8653 11.3494 15.8287 11.2873 15.8043C11.2251 15.78 11.1587 15.7683 11.0919 15.77C10.9639 15.7718 10.8415 15.8226 10.7499 15.912L9.54089 17.107C9.49292 17.1527 9.45452 17.2076 9.42794 17.2683C9.40136 17.3291 9.38712 17.3945 9.38605 17.4608C9.38499 17.527 9.39712 17.5929 9.42173 17.6545C9.44635 17.716 9.48296 17.7721 9.52945 17.8193C9.57593 17.8666 9.63135 17.9042 9.69248 17.9298C9.75361 17.9555 9.81924 17.9687 9.88553 17.9688C9.95183 17.9689 10.0175 17.9557 10.0787 17.9302C10.1398 17.9046 10.1953 17.8672 10.2419 17.82L10.8959 18.475C10.9729 18.709 11.0559 18.942 11.1619 19.162C11.1999 19.24 11.2519 19.309 11.2929 19.385C11.3929 19.568 11.4909 19.752 11.6109 19.922C11.7179 20.072 11.8449 20.206 11.9669 20.346C12.0409 20.431 12.1069 20.523 12.1859 20.604C12.1929 20.611 12.1979 20.62 12.2059 20.627L22.2749 30.697ZM12.7299 17.19L16.7149 21.175C16.4969 21.205 16.2769 21.218 16.0529 21.215L12.6599 17.825C12.7438 17.7439 12.7967 17.6361 12.8095 17.5201C12.8223 17.4041 12.7941 17.2874 12.7299 17.19Z" fill="#FFE488" />
          <path d="M15.5909 9.77603C13.2599 9.89903 11.2029 11.476 10.5769 13.764C10.5419 13.892 10.5592 14.0286 10.6249 14.1439C10.6907 14.2591 10.7995 14.3435 10.9274 14.3785C11.0554 14.4135 11.192 14.3963 11.3073 14.3305C11.4225 14.2648 11.5069 14.156 11.5419 14.028C12.1249 11.898 14.2289 10.518 16.4749 10.808C18.4829 11.066 20.0149 12.582 20.3209 14.473L20.0259 14.183C19.9791 14.135 19.9231 14.0969 19.8613 14.0709C19.7994 14.045 19.733 14.0318 19.6659 14.032C19.5664 14.0326 19.4693 14.0629 19.3871 14.119C19.3048 14.1751 19.2412 14.2545 19.2044 14.347C19.1675 14.4395 19.1591 14.5408 19.1803 14.6381C19.2014 14.7354 19.2511 14.8242 19.3229 14.893L20.5339 16.088C20.6275 16.1805 20.7538 16.2324 20.8854 16.2324C21.017 16.2324 21.1433 16.1805 21.2369 16.088L22.4469 14.893C22.4979 14.848 22.5391 14.793 22.5681 14.7315C22.597 14.67 22.6132 14.6032 22.6154 14.5352C22.6177 14.4672 22.6061 14.3995 22.5813 14.3362C22.5565 14.2729 22.5191 14.2153 22.4713 14.1669C22.4235 14.1186 22.3663 14.0805 22.3032 14.055C22.2402 14.0295 22.1726 14.0171 22.1046 14.0186C22.0367 14.0201 21.9697 14.0355 21.9078 14.0637C21.846 14.092 21.7906 14.1326 21.7449 14.183L21.3309 14.59C21.0629 12.14 19.1329 10.141 16.6019 9.81503C16.2668 9.7712 15.9285 9.75881 15.5909 9.77603ZM11.0909 15.77C10.9628 15.7721 10.8404 15.8233 10.7489 15.913L9.53894 17.108C9.44439 17.2011 9.3907 17.328 9.38966 17.4606C9.38863 17.5933 9.44035 17.721 9.53344 17.8155C9.62653 17.9101 9.75337 17.9638 9.88605 17.9648C10.0187 17.9658 10.1464 17.9141 10.2409 17.821L10.6549 17.413C10.9249 19.861 12.8539 21.86 15.3839 22.186C18.1109 22.537 20.6939 20.851 21.4089 18.236C21.4438 18.1081 21.4264 17.9715 21.3606 17.8563C21.2948 17.7412 21.1859 17.6569 21.0579 17.622C20.93 17.5872 20.7934 17.6045 20.6782 17.6704C20.5631 17.7362 20.4788 17.8451 20.4439 17.973C19.8609 20.103 17.7569 21.485 15.5109 21.196C13.5039 20.937 11.9719 19.42 11.6649 17.53L11.9599 17.82C12.0067 17.8662 12.0621 17.9027 12.1229 17.9274C12.1838 17.9522 12.2489 17.9647 12.3146 17.9643C12.3803 17.9639 12.4453 17.9505 12.5058 17.925C12.5664 17.8995 12.6213 17.8623 12.6674 17.8155C12.7136 17.7688 12.7501 17.7134 12.7749 17.6525C12.7996 17.5917 12.8121 17.5265 12.8117 17.4608C12.8113 17.3951 12.7979 17.3302 12.7724 17.2696C12.7469 17.2091 12.7097 17.1542 12.6629 17.108L11.4519 15.913C11.4043 15.8663 11.3479 15.8296 11.2859 15.8051C11.2239 15.7805 11.1576 15.7686 11.0909 15.77Z" fill="#866A05" />
        </g>
        <defs>
          <clipPath id="clip0_11_932">
            <rect width="32" height="32" fill="white" />
          </clipPath>
        </defs>
      </symbol>
      <symbol id="icon-progress" viewBox="0 0 32 32" fill="none">
          <path d="M26.8801 12.16V27.52C26.8801 27.6897 26.8127 27.8525 26.6927 27.9725C26.5726 28.0926 26.4099 28.16 26.2401 28.16H22.4001C22.2304 28.16 22.0676 28.0926 21.9476 27.9725C21.8275 27.8525 21.7601 27.6897 21.7601 27.52V12.16C21.7601 11.9903 21.8275 11.8275 21.9476 11.7075C22.0676 11.5874 22.2304 11.52 22.4001 11.52H26.2401C26.4099 11.52 26.5726 11.5874 26.6927 11.7075C26.8127 11.8275 26.8801 11.9903 26.8801 12.16ZM17.9201 16.64H14.0801C13.9104 16.64 13.7476 16.7074 13.6276 16.8275C13.5075 16.9475 13.4401 17.1103 13.4401 17.28V27.52C13.4401 27.6897 13.5075 27.8525 13.6276 27.9725C13.7476 28.0926 13.9104 28.16 14.0801 28.16H17.9201C18.0899 28.16 18.2526 28.0926 18.3727 27.9725C18.4927 27.8525 18.5601 27.6897 18.5601 27.52V17.28C18.5601 17.1103 18.4927 16.9475 18.3727 16.8275C18.2526 16.7074 18.0899 16.64 17.9201 16.64ZM9.60012 21.76H5.76012C5.59038 21.76 5.42759 21.8274 5.30757 21.9475C5.18755 22.0675 5.12012 22.2303 5.12012 22.4V27.52C5.12012 27.6897 5.18755 27.8525 5.30757 27.9725C5.42759 28.0926 5.59038 28.16 5.76012 28.16H9.60012C9.76986 28.16 9.93264 28.0926 10.0527 27.9725C10.1727 27.8525 10.2401 27.6897 10.2401 27.52V22.4C10.2401 22.2303 10.1727 22.0675 10.0527 21.9475C9.93264 21.8274 9.76986 21.76 9.60012 21.76ZM22.0801 8.2688L21.7601 4.4288C21.7673 4.38643 21.7673 4.34317 21.7601 4.3008C21.7601 4.3008 21.7601 4.3008 21.7601 4.2368L21.6705 4.1344H21.5809H21.2993L17.5233 4.8128C17.4399 4.82673 17.3602 4.85704 17.2886 4.90198C17.217 4.94692 17.155 5.00559 17.1062 5.07462C17.0574 5.14364 17.0227 5.22165 17.0043 5.30414C16.9858 5.38662 16.9838 5.47195 16.9985 5.5552C17.0281 5.70316 17.108 5.83631 17.2247 5.93199C17.3414 6.02767 17.4876 6.07997 17.6385 6.08H17.7409L19.9553 5.6832C18.5359 7.42019 16.7659 8.83796 14.7609 9.84377C12.7558 10.8496 10.5611 11.4208 8.32012 11.52C8.15038 11.52 7.98759 11.5874 7.86757 11.7075C7.74755 11.8275 7.68012 11.9903 7.68012 12.16C7.68012 12.3297 7.74755 12.4925 7.86757 12.6125C7.98759 12.7326 8.15038 12.8 8.32012 12.8C10.7228 12.6497 13.0653 11.9858 15.1895 10.853C17.3137 9.72026 19.1702 8.14502 20.6337 6.2336L20.8129 8.3712C20.8256 8.52973 20.8969 8.67785 21.0128 8.7867C21.1288 8.89555 21.2811 8.95733 21.4401 8.96H21.5041C21.6718 8.94376 21.8263 8.86209 21.9341 8.7327C22.0419 8.60331 22.0944 8.43663 22.0801 8.2688Z" fill="#1B88EC" />
      </symbol>
      <symbol id="icon-badges" viewBox="0 0 32 32" fill="none">
        <path fill-rule="evenodd" clip-rule="evenodd" d="M14.1802 21.7017L9.56119 29.7017C9.50767 29.7941 9.42675 29.8675 9.32964 29.9118C9.23252 29.9561 9.12404 29.9691 9.01922 29.9489C8.9144 29.9288 8.81845 29.8765 8.74466 29.7994C8.67088 29.7223 8.62292 29.6241 8.60744 29.5185L8.05744 25.774L4.53994 27.169C4.43993 27.2087 4.32996 27.216 4.22558 27.1899C4.1212 27.1637 4.02768 27.1054 3.95826 27.0231C3.88883 26.9409 3.847 26.839 3.83869 26.7317C3.83038 26.6244 3.856 26.5172 3.91194 26.4252L8.49419 18.4857C8.53358 18.4174 8.58819 18.359 8.65379 18.3151C8.71939 18.2713 8.79421 18.2431 8.87245 18.2328C8.95069 18.2226 9.03024 18.2304 9.10494 18.2559C9.17964 18.2813 9.24748 18.3236 9.30319 18.3795C9.92599 19.0086 10.634 19.5472 11.4064 19.9795C12.1743 20.4099 12.9991 20.7298 13.8564 20.9295C13.9361 20.9479 14.0103 20.9849 14.0728 21.0377C14.1353 21.0904 14.1843 21.1572 14.2159 21.2327C14.2474 21.3081 14.2606 21.39 14.2542 21.4715C14.2478 21.553 14.2221 21.6319 14.1792 21.7015M23.4999 18.532L28.0967 26.494C28.1497 26.5863 28.1727 26.6929 28.1625 26.7989C28.1523 26.9048 28.1094 27.005 28.0397 27.0855C27.97 27.166 27.877 27.2229 27.7736 27.2482C27.6702 27.2735 27.5614 27.266 27.4624 27.2267L23.9449 25.8317L23.3949 29.5762C23.3791 29.6842 23.3294 29.7844 23.253 29.8623C23.1765 29.9402 23.0773 29.9918 22.9696 30.0097C22.862 30.0275 22.7514 30.0107 22.6539 29.9617C22.5564 29.9126 22.477 29.8338 22.4272 29.7367L17.7829 21.6955C17.7426 21.6258 17.7193 21.5476 17.7147 21.4672C17.7101 21.3868 17.7244 21.3064 17.7566 21.2326C17.7887 21.1587 17.8377 21.0934 17.8996 21.042C17.9616 20.9905 18.0347 20.9543 18.1132 20.9362C18.9718 20.7396 19.7983 20.4226 20.5682 19.9945C21.3416 19.5643 22.0508 19.0275 22.6749 18.4C22.7324 18.342 22.8028 18.2985 22.8804 18.2732C22.958 18.2478 23.0406 18.2413 23.1212 18.2541C23.2018 18.267 23.2782 18.2988 23.3441 18.3471C23.4099 18.3953 23.4634 18.4585 23.4999 18.5315V18.532Z" fill="#9B0FCB" />
        <path fill-rule="evenodd" clip-rule="evenodd" d="M15.9999 1.983C17.9645 1.983 19.885 2.56558 21.5185 3.65706C23.152 4.74854 24.4252 6.2999 25.177 8.11496C25.9289 9.93003 26.1256 11.9273 25.7423 13.8541C25.359 15.781 24.413 17.5509 23.0238 18.9401C21.6346 20.3293 19.8646 21.2754 17.9378 21.6586C16.0109 22.0419 14.0137 21.8452 12.1986 21.0934C10.3835 20.3416 8.83218 19.0684 7.74071 17.4349C6.64923 15.8014 6.06665 13.8809 6.06665 11.9163C6.06662 10.6118 6.32353 9.32009 6.82271 8.11492C7.32189 6.90975 8.05356 5.8147 8.97596 4.89231C9.89835 3.96992 10.9934 3.23824 12.1986 2.73906C13.4037 2.23988 14.6954 1.98297 15.9999 1.983Z" fill="#9B0FCB" />
        <path fill-rule="evenodd" clip-rule="evenodd" d="M16.0001 1.983C15.8836 1.983 15.7681 1.98775 15.6523 1.99175C18.2254 2.0803 20.6634 3.16468 22.4523 5.01619C24.2412 6.8677 25.2411 9.3416 25.2411 11.9161C25.2411 14.4907 24.2412 16.9646 22.4523 18.8161C20.6634 20.6676 18.2254 21.752 15.6523 21.8405C15.7681 21.8445 15.8833 21.8493 16.0001 21.8493C18.6259 21.8361 21.1396 20.7837 22.9917 18.9224C24.8438 17.061 25.8835 14.542 25.8835 11.9161C25.8835 9.2903 24.8438 6.77129 22.9917 4.9099C21.1396 3.04851 18.6259 1.99617 16.0001 1.983Z" fill="#9B0FCB" />
        <path d="M21.4986 6.87325C20.3319 5.70646 18.7967 4.98031 17.1546 4.81853C15.5125 4.65676 13.8651 5.06937 12.4931 5.98606C11.1212 6.90275 10.1095 8.2668 9.63048 9.84578C9.15148 11.4248 9.2348 13.121 9.86623 14.6454C10.4977 16.1699 11.6382 17.4282 13.0934 18.206C14.5486 18.9839 16.2285 19.233 17.8468 18.9111C19.4651 18.5892 20.9218 17.7161 21.9685 16.4406C23.0153 15.1651 23.5874 13.566 23.5874 11.916C23.5886 10.9793 23.4046 10.0516 23.0462 9.18619C22.6877 8.32079 22.1618 7.53475 21.4986 6.87325ZM16.4559 3.7535C18.3444 3.75347 20.1744 4.40826 21.6343 5.6063C23.0941 6.80434 24.0934 8.4715 24.4619 10.3237C24.8303 12.1759 24.5451 14.0986 23.6549 15.7641C22.7647 17.4296 21.3245 18.7349 19.5797 19.4576C17.835 20.1803 15.8936 20.2757 14.0864 19.7275C12.2793 19.1793 10.7181 18.0214 9.66888 16.4512C8.61969 14.881 8.14742 12.9955 8.33254 11.1161C8.51766 9.23669 9.34872 7.47961 10.6841 6.14425C11.4412 5.38517 12.3409 4.7832 13.3314 4.37291C14.3219 3.96263 15.3837 3.75212 16.4559 3.7535Z" fill="#9B0FCB" />
        <path d="M17.0766 7.78801L17.8396 10.1515L20.3293 10.1468C20.4663 10.1473 20.5995 10.191 20.7101 10.2718C20.8207 10.3525 20.903 10.4661 20.9452 10.5964C20.9874 10.7266 20.9874 10.8669 20.9452 10.9972C20.903 11.1274 20.8207 11.241 20.7101 11.3218V11.323L18.6938 12.782L19.4676 15.1478C19.5116 15.2825 19.5104 15.4279 19.4642 15.5619C19.4179 15.6959 19.3292 15.8111 19.2114 15.8899C19.0936 15.9688 18.9533 16.007 18.8118 15.9987C18.6703 15.9904 18.5354 15.9361 18.4276 15.844L16.4566 14.405L14.4451 15.8725C14.3343 15.9532 14.2008 15.9968 14.0637 15.9969C13.9267 15.997 13.7931 15.9537 13.6822 15.8731C13.5712 15.7926 13.4887 15.679 13.4464 15.5486C13.4041 15.4183 13.4041 15.2778 13.4466 15.1475H13.4448L14.2198 12.7818L12.2023 11.3225C12.0876 11.2396 12.0031 11.1215 11.9616 10.9862C11.9202 10.8509 11.924 10.7057 11.9725 10.5728C12.0211 10.4398 12.1117 10.3264 12.2306 10.2496C12.3495 10.1729 12.4902 10.137 12.6313 10.1475L15.0738 10.1523L15.8381 7.78426C15.8805 7.65316 15.9635 7.53895 16.0751 7.4581C16.1867 7.37725 16.3211 7.33395 16.4588 7.33445C16.5966 7.33495 16.7307 7.37922 16.8417 7.46088C16.9527 7.54254 17.0348 7.65736 17.0763 7.78876" fill="#9B0FCB" />
        <path d="M21.043 6.87325C19.8763 5.70646 18.3411 4.98031 16.699 4.81853C15.0569 4.65676 13.4096 5.06937 12.0376 5.98606C10.6656 6.90275 9.65392 8.2668 9.17492 9.84578C8.69592 11.4248 8.77924 13.121 9.41067 14.6454C10.0421 16.1699 11.1826 17.4282 12.6378 18.206C14.093 18.9839 15.7729 19.233 17.3912 18.9111C19.0096 18.5892 20.4662 17.7161 21.513 16.4406C22.5597 15.1651 23.1318 13.566 23.1318 11.916C23.133 10.9793 22.9491 10.0516 22.5906 9.1862C22.2322 8.3208 21.7062 7.53476 21.043 6.87325ZM16 3.7535C17.8885 3.75347 19.7186 4.40826 21.1785 5.6063C22.6383 6.80434 23.6376 8.4715 24.0061 10.3237C24.3745 12.1759 24.0893 14.0986 23.1991 15.7641C22.3089 17.4296 20.8687 18.7349 19.1239 19.4576C17.3792 20.1803 15.4378 20.2757 13.6306 19.7275C11.8234 19.1793 10.2623 18.0214 9.21307 16.4512C8.16388 14.881 7.69161 12.9955 7.87673 11.1161C8.06185 9.23669 8.8929 7.47961 10.2283 6.14425C10.9854 5.38517 11.8851 4.7832 12.8756 4.37291C13.8661 3.96263 14.9279 3.75212 16 3.7535Z" fill="white" />
        <path d="M16.6208 7.78801L17.3838 10.1515L19.8735 10.1468C20.0104 10.1473 20.1437 10.191 20.2543 10.2718C20.3649 10.3525 20.4472 10.4661 20.4894 10.5964C20.5316 10.7266 20.5316 10.8669 20.4894 10.9972C20.4471 11.1274 20.3649 11.241 20.2543 11.3218V11.323L18.238 12.782L19.013 15.1478C19.0571 15.2825 19.0559 15.4279 19.0096 15.5619C18.9634 15.6959 18.8746 15.8111 18.7568 15.8899C18.639 15.9688 18.4987 16.007 18.3572 15.9987C18.2157 15.9904 18.0808 15.9361 17.973 15.844L16 14.405L13.9883 15.8725C13.8775 15.9532 13.744 15.9968 13.6069 15.9969C13.4698 15.997 13.3363 15.9537 13.2254 15.8731C13.1144 15.7926 13.0319 15.679 12.9896 15.5486C12.9472 15.4183 12.9473 15.2778 12.9898 15.1475H12.988L13.763 12.7818L11.7465 11.3225C11.6318 11.2396 11.5473 11.1215 11.5058 10.9862C11.4644 10.8509 11.4682 10.7057 11.5167 10.5728C11.5653 10.4398 11.6559 10.3264 11.7748 10.2496C11.8937 10.1729 12.0344 10.137 12.1755 10.1475L14.618 10.1523L15.3823 7.78426C15.4247 7.65316 15.5077 7.53895 15.6193 7.4581C15.7309 7.37725 15.8652 7.33395 16.003 7.33445C16.1408 7.33495 16.2749 7.37922 16.3859 7.46088C16.4969 7.54254 16.579 7.65736 16.6205 7.78876" fill="white" />
      </symbol>
      <symbol id="icon-burger" viewBox="0 0 40 41">
        <rect x="8.60254" y="14" width="22" height="2"></rect>
        <rect x="8.60254" y="21" width="22" height="2"></rect>
        <rect x="8.60254" y="28" width="22" height="2"></rect>  
      </symbol>
      <symbol id="icon-arrow-right" viewBox="0 0 8 14" fill="none">
          <path d="M7 13L1 7L7 1" stroke="#866A05" stroke-width="2" stroke-linecap="round" stroke-linejoin="round" />
      </symbol>
      <symbol id="icon-play" viewBox="0 0 15 20" fill="none">
        <path d="M0 2.98963C0 2.01847 0 1.53289 0.20249 1.26522C0.378894 1.03203 0.648522 0.887728 0.940398 0.870301C1.27544 0.850296 1.67946 1.11965 2.48752 1.65835L13.0031 8.66873C13.6708 9.11385 14.0046 9.33641 14.1209 9.61694C14.2227 9.86219 14.2227 10.1378 14.1209 10.3831C14.0046 10.6636 13.6708 10.8862 13.0031 11.3313L2.48752 18.3417C1.67946 18.8804 1.27544 19.1497 0.940398 19.1297C0.648522 19.1123 0.378894 18.968 0.20249 18.7348C0 18.4671 0 17.9815 0 17.0104V2.98963Z" fill="white" />
      </symbol>
      <symbol id="icon-question" viewBox="0 0 11 18" fill="none">
        <path d="M3.71275 12.0106V11.6337C3.69451 10.9361 3.76437 10.2389 3.92068 9.55878C4.02497 9.10471 4.23249 8.68077 4.52714 8.31988C4.81206 7.98581 5.14316 7.69409 5.51046 7.45352C5.84834 7.23259 6.14724 7.02034 6.41581 6.81674C6.6576 6.63233 6.86946 6.4117 7.04392 6.16264C7.2001 5.92967 7.28168 5.65469 7.27784 5.37424C7.28242 5.12967 7.21624 4.88899 7.08724 4.68115C6.96234 4.48182 6.78567 4.32013 6.57609 4.21332C6.21942 4.03626 5.80993 3.99714 5.4262 4.10347C5.04246 4.2098 4.7115 4.45408 4.49681 4.78945C4.35003 5.0322 4.27494 5.31154 4.28022 5.59517H0.2473C0.211104 4.59613 0.486634 3.61058 1.03569 2.77515C1.54677 2.05459 2.2597 1.50143 3.08464 1.18538C3.98005 0.842941 4.93319 0.67673 5.89166 0.695882C6.91662 0.679536 7.93624 0.846782 8.90227 1.18971C9.72441 1.47603 10.4484 1.98975 10.9902 2.67119C11.5186 3.3848 11.7876 4.25741 11.7526 5.14466C11.7643 5.71877 11.6536 6.28879 11.4277 6.81674C11.2125 7.29535 10.9049 7.7267 10.5224 8.08596C10.1101 8.46709 9.65686 8.80125 9.17085 9.08228C8.82893 9.27671 8.5081 9.50608 8.21351 9.76671C7.96676 9.98749 7.76903 10.2575 7.63305 10.5594C7.49129 10.9009 7.42338 11.2685 7.43379 11.6381V12.0149L3.71275 12.0106ZM5.63608 17.3084C5.34576 17.3118 5.05772 17.2568 4.78907 17.1467C4.52043 17.0365 4.27668 16.8735 4.0723 16.6673C3.86244 16.4647 3.69705 16.2207 3.58668 15.9507C3.4763 15.6807 3.42335 15.3907 3.43119 15.0992C3.42472 14.8129 3.47845 14.5285 3.58889 14.2644C3.69933 14.0002 3.86402 13.7622 4.0723 13.5657C4.48325 13.1554 5.04022 12.925 5.62092 12.925C6.20162 12.925 6.75859 13.1554 7.16954 13.5657C7.38325 13.7598 7.55382 13.9965 7.67023 14.2607C7.78664 14.5249 7.84629 14.8105 7.84531 15.0992C7.84502 15.4944 7.73397 15.8815 7.52475 16.2168C7.32354 16.5429 7.04729 16.8162 6.71904 17.0138C6.39127 17.208 6.01704 17.3098 5.63608 17.3084Z" fill="white" />
      </symbol>

    </defs>
</svg>